<?xml version="1.0" encoding="utf-8"?>
<!-- Generator: Adobe Illustrator 21.0.0, SVG Export Plug-In . SVG Version: 6.00 Build 0)  -->
<svg version="1.1" id="Layer_1" xmlns="http://www.w3.org/2000/svg" xmlns:xlink="http://www.w3.org/1999/xlink" x="0px" y="0px"
	 viewBox="0 0 94.3 34" style="enable-background:new 0 0 94.3 34;" xml:space="preserve">
<style type="text/css">
	.st0{fill:none;stroke:#000000;stroke-width:2;stroke-miterlimit:10;}
</style>
<path d="M14.5,10l5.8,11.4L26.1,10l1.5,14h-1.3l-1-9.4l-4.9,9.7l-4.9-9.8l-1,9.4h-1.3L14.5,10z"/>
<path d="M32.1,18.1l-4.6-7.7h1.6l3.7,6.2l3.6-6.2H38l-4.5,7.7V24h-1.3V18.1z"/>
<path d="M42.6,24.2c-0.8,0-1.6-0.2-2.4-0.5c-0.7-0.3-1.4-0.9-1.9-1.6l1-0.9c0.4,0.5,0.9,0.9,1.4,1.3s1.2,0.5,1.9,0.5
	c0.4,0,0.8-0.1,1.1-0.2c0.3-0.1,0.6-0.3,0.9-0.6c0.2-0.2,0.4-0.5,0.5-0.9s0.2-0.7,0.2-1.1c0-0.3-0.1-0.6-0.2-0.9s-0.3-0.5-0.5-0.7
	c-0.2-0.2-0.4-0.4-0.7-0.5c-0.3-0.1-0.6-0.3-0.8-0.4l-1.5-0.6c-0.4-0.1-0.7-0.3-1-0.5c-0.3-0.2-0.6-0.4-0.9-0.7
	c-0.2-0.3-0.4-0.6-0.6-1c-0.1-0.4-0.2-0.8-0.2-1.3c0-0.5,0.1-0.9,0.3-1.4c0.2-0.4,0.5-0.8,0.8-1.1c0.3-0.3,0.7-0.6,1.2-0.7
	c0.5-0.2,1-0.3,1.5-0.3c0.8,0,1.4,0.1,1.9,0.3c0.5,0.2,1,0.6,1.4,1l-0.8,1c-0.3-0.3-0.7-0.6-1.1-0.8s-0.9-0.3-1.4-0.3
	c-0.3,0-0.7,0.1-1,0.2c-0.3,0.1-0.5,0.3-0.8,0.5c-0.2,0.2-0.4,0.4-0.5,0.7c-0.1,0.3-0.2,0.6-0.2,0.9c0,0.3,0.1,0.6,0.2,0.8
	c0.1,0.2,0.2,0.4,0.4,0.6c0.2,0.2,0.4,0.3,0.6,0.5c0.2,0.1,0.5,0.3,0.8,0.4l1.5,0.6c0.4,0.2,0.7,0.3,1.1,0.5s0.7,0.5,0.9,0.7
	s0.5,0.6,0.7,1c0.2,0.4,0.2,0.9,0.2,1.4c0,0.5-0.1,1.1-0.3,1.5c-0.2,0.5-0.5,0.9-0.9,1.2c-0.4,0.4-0.8,0.6-1.3,0.8
	C43.7,24.1,43.1,24.2,42.6,24.2z"/>
<path d="M50.5,11.7h-3.4v-1.2h8.2v1.2h-3.4V24h-1.3V11.7z"/>
<path d="M55.3,10.5h1.6l3.5,5.9l-0.8,1.3L55.3,10.5z M64.2,10.5h1.6l-4.5,7.7V24h-1.3v-5.9L64.2,10.5z"/>
<path d="M66.6,10.5H68v12.4h5.8V24h-7.2V10.5z"/>
<path d="M74.9,22.8h8V24h-8L74.9,22.8z M74.9,10.5h8v1.2h-8V10.5z M74.9,16.5h7.6v1.2h-7.6V16.5z"/>
<path class="st0" d="M88.7,27.5L6.9,32.2c-2.2,0.1-4.1-1.6-4.2-3.8l-1-18.2C1.5,8.1,3.2,6.2,5.4,6l81.9-4.7c2.2-0.1,4.1,1.6,4.2,3.8
	l1,18.2C92.6,25.5,91,27.4,88.7,27.5z"/>
</svg>
