<?xml version="1.0" encoding="utf-8"?>
<!-- Generator: Adobe Illustrator 22.1.0, SVG Export Plug-In . SVG Version: 6.00 Build 0)  -->
<svg version="1.1" id="Layer_1" xmlns="http://www.w3.org/2000/svg" xmlns:xlink="http://www.w3.org/1999/xlink" x="0px" y="0px"
	 viewBox="0 0 94.3 34" style="enable-background:new 0 0 94.3 34;" xml:space="preserve">
<style type="text/css">
	.st0{fill:none;}
	.st1{fill:#FFFFFF;}
	.st2{fill:none;stroke:#FFFFFF;stroke-width:2;stroke-miterlimit:10;}
</style>
<rect class="st0" width="94.3" height="34"/>
<path class="st1" d="M14.6,10.3l5.8,11.4l5.8-11.4l1.5,14h-1.3l-1-9.4l-4.9,9.7l-4.9-9.8l-1,9.4h-1.3L14.6,10.3z"/>
<path class="st1" d="M32.2,18.4l-4.6-7.7h1.6l3.7,6.2l3.6-6.2h1.6l-4.5,7.7v5.9h-1.3L32.2,18.4L32.2,18.4z"/>
<path class="st1" d="M42.7,24.5c-0.8,0-1.6-0.2-2.4-0.5c-0.7-0.3-1.4-0.9-1.9-1.6l1-0.9c0.4,0.5,0.9,0.9,1.4,1.3s1.2,0.5,1.9,0.5
	c0.4,0,0.8-0.1,1.1-0.2s0.6-0.3,0.9-0.6c0.2-0.2,0.4-0.5,0.5-0.9s0.2-0.7,0.2-1.1c0-0.3-0.1-0.6-0.2-0.9s-0.3-0.5-0.5-0.7
	s-0.4-0.4-0.7-0.5s-0.6-0.3-0.8-0.4l-1.5-0.6c-0.4-0.1-0.7-0.3-1-0.5s-0.6-0.4-0.9-0.7c-0.2-0.3-0.4-0.6-0.6-1
	c-0.1-0.4-0.2-0.8-0.2-1.3s0.1-0.9,0.3-1.4c0.2-0.4,0.5-0.8,0.8-1.1s0.7-0.6,1.2-0.7c0.5-0.2,1-0.3,1.5-0.3c0.8,0,1.4,0.1,1.9,0.3
	s1,0.6,1.4,1l-0.8,1c-0.3-0.3-0.7-0.6-1.1-0.8s-0.9-0.3-1.4-0.3c-0.3,0-0.7,0.1-1,0.2c-0.3,0.1-0.5,0.3-0.8,0.5
	c-0.2,0.2-0.4,0.4-0.5,0.7s-0.2,0.6-0.2,0.9c0,0.3,0.1,0.6,0.2,0.8c0.1,0.2,0.2,0.4,0.4,0.6c0.2,0.2,0.4,0.3,0.6,0.5
	c0.2,0.1,0.5,0.3,0.8,0.4l1.5,0.6c0.4,0.2,0.7,0.3,1.1,0.5s0.7,0.5,0.9,0.7s0.5,0.6,0.7,1s0.2,0.9,0.2,1.4s-0.1,1.1-0.3,1.5
	c-0.2,0.5-0.5,0.9-0.9,1.2c-0.4,0.4-0.8,0.6-1.3,0.8C43.8,24.4,43.2,24.5,42.7,24.5z"/>
<path class="st1" d="M50.6,11.9h-3.4v-1.2h8.2v1.2H52v12.3h-1.3L50.6,11.9L50.6,11.9z"/>
<path class="st1" d="M55.4,10.8H57l3.5,5.9L59.7,18L55.4,10.8z M64.3,10.8h1.6l-4.5,7.7v5.8h-1.3v-5.9L64.3,10.8z"/>
<path class="st1" d="M66.7,10.8h1.4v12.4h5.8v1.1h-7.2C66.7,24.3,66.7,10.8,66.7,10.8z"/>
<path class="st1" d="M75,23h8v1.2h-8V23z M75,10.8h8V12h-8V10.8z M75,16.8h7.6V18H75V16.8z"/>
<path class="st2" d="M88.8,27.8L7,32.5c-2.2,0.1-4.1-1.6-4.2-3.8l-1-18.2c-0.2-2.1,1.5-4,3.7-4.2l81.9-4.7c2.2-0.1,4.1,1.6,4.2,3.8
	l1,18.2C92.7,25.8,91.1,27.6,88.8,27.8z"/>
</svg>
